<svg id="Layer_1" xmlns="http://www.w3.org/2000/svg" viewBox="0 0 710 425">
    <style>
        .st0{fill:#131335}.st1{fill:#c3747f}.st2{fill:#0b0146}.st3{fill:#f1fbff}.st4{fill:#222262}.st5{fill:#353e79}.st6{fill:#ffc07f}.st7{fill:#fff}.st8{fill:#b2b2d8}.st9{fill:#fdb1b1}.st10{fill:#ea9494}.st11{fill:#8a8ed8}.st12{fill:#f0f9ff}.st13{fill:#98a5e2}.st14{fill:#c2bfd1}.st15{fill:#b26f80}.st16{fill:#6a6bb3}.st17{fill:#2a337e}.st18{fill:#e59880}.st19{fill:#ffe3c5}.st20{fill:#fcfbf8}.st21{fill:#8a8fb8}.st22{fill:#171c5b}.st23{fill:#8a6b5c}.st24{fill:#2c5777}.st25{fill:#2c6b7a}.st26{opacity:.8}
    </style>
    <title>
        2_3-tic-tac-toe
    </title>
    <path class="st0" d="M131.7 333.1c-34.3 9.7-76.9 11.6-114.1 5.2-4.1-.7-8.4-1.6-11.4-3.2S1.5 331 3.3 329c1.7-1.9 5.9-2.9 9.9-3.4 21.7-3.1 44.7 1 67.3 1.6 17.9.5 36.7-1.3 53.4 2.1l-2.2 3.8z"/>
    <path class="st1" d="M487.5 53.5c-6.7-13.2-1.3-29.3 12-35.7 12.5-6.1 27.9-1.3 34.7 10.9 5.9 10.5 3.8 23.2-4.1 31.3l5 9.9-17.4 8.8-2.9-5.7c-1.1-2.2-3.4-3.6-5.9-3.5-7.8.2-15.2-3.9-21.4-16"/>
    <path class="st2" d="M484 38.9c-1.1-8.8 5.7-17.7 14.6-22.2 13-6.6 29.4-.5 36 12.5 6 11.7 3.1 25.6-7.1 33.1-1.1.8 5.3 1.3-1.3 1.9-2.1.5-3.9-.2-5.4-2-8.2-9.8-9.1-17.3-15.8-16.8-6.9.5-13.9-.7-20.3-5.1-.2-.1-.4-.6-.7-1.4"/>
    <path class="st2" d="M517.9 15.3c-4.4.5-8.6-2.3-9.3-6.1s2.3-7.3 6.7-7.8 8.6 2.3 9.3 6.1c.8 3.9-2.2 7.3-6.7 7.8"/>
    <path class="st3" d="M533.1999999999999 26.59999999999999c.5.7.9 1.5 1.4 2.3-.5-.8-.9-1.6-1.4-2.3m-.4-.6"/>
    <path class="st4" d="M514.3 15c2.7 1.6 5.4 3.6 7.9 6.1 5.2 5.1 6.6 12.1 7 19.1.3 5.7-.6 12.4 1.5 17.9.6-.1 1.1-.3 1.7-.3 6.1-7.7 7.2-18.7 2.5-28.3v-.4c-.4-.8-.9-1.6-1.4-2.3-3.6-5.2-8.8-8.9-14.6-10.7h-1.2c-1.6-.8-2.5-.9-3.4-1.1"/>
    <path class="st4" d="M512.9 14.2c.5.3.9.5 1.4.8.8.2 1.7.4 2.7.4h1.2-1.2c-.5 0-1 0-1.5-.1-.2-.3-.4-.5-.7-.8-.6-.2-1.3-.3-1.9-.3"/>
    <path class="st3" d="M524.7 7.5c.1.4.1.7.1 1.1 0-.3 0-.7-.1-1.1M516.3 1.3h-.9.9m0 0"/>
    <path class="st4" d="M516.3 1.3h-.9c-2.3.3-4.2 1.4-5.3 2.9.7 3.9 2.6 7.2 5 10.1 1.1.2 2.2.5 3.3.8 3.9-.5 6.7-3.3 6.7-6.6 0-.4 0-.7-.1-1.1-1-3.4-4.6-6.1-8.7-6.1"/>
    <path class="st5" d="M514.8 14.4c.2.3.4.5.7.8.5.1 1 .1 1.5.1h1.2c-1.2-.4-2.3-.6-3.4-.9"/>
    <path class="st6" d="M510 13.3c.1-.6.6-1 1.2-.9l9.3 1.6c.6.1 1 .6.9 1.2-.1.6-.6 1-1.2.9l-9.3-1.6c-.5-.1-.9-.6-.9-1.2"/>
    <path class="st7" d="M239.3 262.6c-1.4-.6-3-.1-3.6 1.3l-2.9 6.4c-.6 1.3 0 2.9 1.3 3.5 1.3.6 2.9 0 3.5-1.3l2.9-6.4c.7-1.3.2-2.9-1.2-3.5zM99 305h27.7v15.4H99zM42.8 314.1l-16.5-1.8-7.4-12c2.2-2.1 4-4.4 5.5-7l1-1.8 23 8.3-5.6 14.3z"/>
    <path class="st8" d="M12.2 317.3l4.7-14.3.1-.2 1.7-4.9c.2-.5.9-2 1.3-1 2.3 4.8 5.2 8.9 10.8 10.7 6.2 1.9 12.3.2 15.6-3.8h.2l.7.8c3.7 4.3 6.6 4.8 11.2 7.8 4.2 2.7 9.1 2.3 12.3 9.1l.4 2.5c.1 1 .1 1.9-.6 2.6-.5.5-1 .7-1.7.9-.5.1-1.1.2-1.2.2L43 333.1h-.1c-2.2.3-3.4.5-4.6.7-6 .7-12.2.1-18-1.7l-1.4-.4h-.1c-9.6-4.2-8.6-7.6-6.6-14.4z"/>
    <path class="st9" d="M208.2 188c15.9-1.2 27.7-15.2 26.2-31.1-1.4-15-14.4-26.4-29.4-25.9-13 .5-23.5 9.5-26.6 21.3l-12 .9 1.6 20.9 6.9-.5c2.7-.2 5.3 1.1 6.6 3.5 4.2 7.4 12.1 12 26.7 10.9"/>
    <path class="st2" d="M219.3 181.7c2.2 1.1 4.9.8 6.7-.9 6.5-5.8 10.3-14.4 9.6-23.8-1.2-15.9-15.1-27.8-30.9-26.6-14.3 1.1-25.6 11.6-26.8 25.3-.1 1.5-2.8 13.2-2.7 14.7l16.3 1.5c7.3.7 14.5 2.8 21 6.1l6.8 3.7"/>
    <path class="st3" d="M204.6 130.5"/>
    <path class="st4" d="M206.9 130.4c-.7 0-1.5 0-2.2.1-8.6.7-16.1 4.8-20.9 11 .4-.1.9-.1 1.3-.2 2.2-1.7 5.2-2.7 8.3-3.7 3.9-1.3 8.1-1.8 12.2-1.8 2.5 0 5.1.2 7.5.5 5.5.7 11 2.2 16.2 4.6-5.5-6.4-13.6-10.5-22.4-10.5"/>
    <path class="st9" d="M242.8 238.5c-2.5-.2-4.9.2-7.1 1.1-3.6 1.4-7.6 1.9-11.3.9l-3.4-.9c-7.3-1.9-12.9-7.7-14.5-15.1l-5.1-23.6-30.8 4.3 12.5 39.7c2.1 6.7 7.8 11.7 14.7 12.8l24.3 4.1c3.1.5 6.1 1.9 8.4 4.1 2.9 2.8 6.8 4.5 11.2 4.5 9.2 0 16.6-7.7 16-17-.6-8-7-14.4-14.9-14.9"/>
    <path class="st10" d="M161.4 252.1c-2.8-1.2-4.9-1.1-8.8-2.1-3.3-.9-5.4-1.6-4.9-4.3l.2-1.1c1.3-7.2 3.2-13.4 5.7-20.3 1.3-3.4 2.9-6.7 4.9-9.8l19-29.3-33.4-6-12.5 55.2-5.1 9.1-.7 1.7h.1c-1.4 5.7-1.9 12.1 2.2 15.2l7.9 1.6c5.5.9 9.8 1.4 14.1.9l7.7-1 1.6-.2c7.3-1.4 9.9-2 9.1-5.2-.3-1.3-3.4-2.7-4.6-3.3l-2.5-1.1"/>
    <path class="st10" d="M146.8 268.4l-12.7-5.9c-1.7-.8-2.5-2.8-1.7-4.6v-.1c.8-1.7 2.8-2.5 4.6-1.7l12.7 5.9c1.7.8 2.5 2.8 1.7 4.6v.1c-.8 1.8-2.9 2.5-4.6 1.7z"/>
    <path class="st11" d="M205.6 208.9l-11.7-48.4c-.2-1.3-.5-2.6-.9-3.8v-.1c-1.8-5.1-5.8-9.4-11.1-12.8-8.9-3.4-18.3-4.8-27.8-4.4l-9.8.5c-11.3-.9-20-1-26.1-.5-6.2.5-12.5 2-19.2 4.4l4.3 15c-.6 8 .8 16.1 4.1 23.4l7.8 17.2 10.5-5.8c.9 2.1 2.8 3.5 5.3 4.5v10.1l34.9.5 4.7 8.4 35-8.2"/>
    <path class="st12" d="M126.19999999999999 139.1c-3.1 0-5.7.1-8.1.3h-.1.1c2.4-.2 5.1-.3 8.1-.3 5 0 11.1.3 18.1.8l9.8-.5c1.2-.1 2.4-.1 3.5-.1 8.3 0 16.5 1.5 24.2 4.4-7.7-2.9-16-4.4-24.2-4.4-1.2 0-2.4 0-3.5.1l-9.8.5c-7-.5-13.1-.8-18.1-.8"/>
    <path class="st13" d="M126.2 139.1c-3.1 0-5.7.1-8.1.3h-.1c-2.6.2-5.3.6-8 1.2 11.2 1.3 22.3 3.1 33.5 3.1 1.2 0 2.4 0 3.6-.1 6.9-.3 14.1-1 21.1-1 4.8 0 9.5.3 14.1 1.4-.1-.1-.2-.2-.4-.3-7.7-2.9-16-4.4-24.2-4.4-1.2 0-2.4 0-3.5.1l-9.8.5c-7.1-.5-13.2-.8-18.2-.8"/>
    <path class="st14" d="M162.4 208.5h3.5-3.5m-26.6-.4l-.1.1h1.8v-.1h-1.7"/>
    <path class="st15" d="M137.6 208.2v.1c4.9.1 18.4.2 24.8.2l-24.8-.3"/>
    <path class="st16" d="M154.5 193.2c-1.9 0-3.9.8-5.7 2.5-5.8 5.4-12.3 11.6-13 12.5h1.8l24.8.3h3.5l-4.3-9.9c-1.5-3.6-4.2-5.4-7.1-5.4"/>
    <path class="st8" d="M96.6 328.7l1.3-14.5v-.2l.6-5c.1-.5.4-2.1 1-1.2 3.2 4 6.8 7.3 12.5 7.7 6.2.5 11.7-2.5 13.9-7h.2l.8.6c4.4 3.3 9.3 4.9 14.3 6.7 4.6 1.6 8.3 4.1 8.1 7.6l.2 4.3c.1 1.4-.7 2.7-1.9 3.1-.5.2-.9.3-.9.3l-18.4 8.1h-.1c-5.2 1.2-9.1 2.7-12.2 2.3l-10-.9h-.1c-9.9-1.7-9.7-5.1-9.3-11.9z"/>
    <path class="st17" d="M93.8 307.1l13.1-61.1-6-21.4c-2.4 8.8-11.4 27.1-12.8 30.9l-28.7 43.6-5.3 3c-12.2 6.9-27.7 2.7-34.8-9.4l34-50.6c1.3-3.2 2.4-6.4 3.4-9.6l22.1-64.3c.3-.9.6-1.7.9-2.5.2-.7.4-1 .4-1.1 4.9-13.7 10.7-23.9 25-23.9 15.5 0 31.9 7.3 31.9 22.8 0 5.2 0 5.2-.4 14.1l3.3 48.4 1.7 13.6c-.6 9.8-.3 9.2-1.9 19.1l-8.1 49.6-2.2.7c-11.9 4-24.5 3.3-35.6-1.9z"/>
    <path class="st2" d="M100.9 224.6s-5.7-25.7-6.4-39.9c-.7-14.2-17.3 87.5-17.3 87.5s17.3-20.8 23.7-47.6z"/>
    <path class="st0" d="M576.9 301h-1.6c-27.1.4-54.2.7-81.2 1.1-3.3 0-6.6 0-10.1.3-1.3.1-1.2 1.9 0 2 16.2.5 32.6.8 49 .8 12.8 0 25.7.8 38.2.5l10-1.5c.3.2.7.2 1 .2 1.2 0 2.4-.8 2.7-2-2.5-1.2-5.3-1.4-8-1.4"/>
    <path class="st18" d="M612.2 287.2l-20.1 3-7.2-19.2 21.6-.5c-.4 6 1.5 11.9 5.5 16.4l.2.3zM519.3 271.8h18.6v18.6h-18.6z"/>
    <path class="st17" d="M516.4 235.9c3.2-12.3 4.5-23.2 5.7-36 .6-6.4 1.5-12.7 2.6-19l7.4-40.4c8.3-10-1.2-5.5-.4-5.4l16.6 1.7c1.9-.5 3.8-.5 5.5 0 2.1-2.4 4.3-4 6.3-3.9l16.5 3.5c1.5.3 2.6 1.5 2.8 2.9l10.8 67.9c.4 3.2 1 6.4 1.7 9.6l18.8 51.1c1.1 5.2-3.3 10.1-9.1 10.1h-19.1c-4.5 0-8.4-3-9.1-7.1l-9-25.5c-5.5-15.5-9.1-31.7-10.6-48.1l-.1-.9c-.3 7.3-.9 19-.9 19.2l-7.8 56.2c.1 5.5-2.5 9.8-8.3 8.7l-21.6-3.9c-4.3-.8-5.5-1.6-5.5-5.6l6.8-35.1"/>
    <path class="st6" d="M576.7 125.4l-20.6-31.8 8.5-5.5-12.3-18.6c-.2-.2-.3-.5-.5-.7v-.1c-.1-.1-.1-.2-.2-.3-.2-.2-.3-.4-.4-.6-1.1-1.9-2.5-3.6-3.9-5-1.3-1.3-2.6-2.3-4-3-5-2.8-10.9-3-16.1-.3-3.6 1.8-6.2 4.6-7.9 7.8-.6.3-1.2.5-1.8.6l-4.7 1.2c-.3.1-.6.2-1 .3-7.1 2.9 11.3 60.7 14.4 67.7l4.5 8.8c.3.9 1.2 1.4 2.1 1.3h.4l1.5-.2c14.9-2.1 29.6-9.5 41.5-19.1.7-.7.9-1.7.5-2.5"/>
    <path class="st19" d="M534.8 57.5c-1 0-2.1.1-3.1.3l1 1c6 2.4 12.1 5.5 17.1 9.3 1.3 1 2.5 2 3.7 3.1l-1.2-1.8c-.2-.2-.3-.5-.5-.7v-.1c-.1-.1-.1-.2-.2-.3-.2-.2-.3-.4-.4-.6-1.1-1.9-2.5-3.6-3.9-5-1.3-1.3-2.6-2.3-4-3-.1-.1-.2-.1-.3-.2-2.7-1.3-5.5-2-8.2-2"/>
    <path class="st1" d="M521.9 63.3s-.9 5.7-10.7 6.5c-3.1-6.1-.7-9.2-.7-9.2l5.6.4 5.8 2.3z"/>
    <path class="st20" d="M521.5 284.3l-2.1-.6c-2.3-.6-5.8.1-7.6 1.6-7 5.6-19.8 6.9-19.8 15.1 0 2.4-.7 4.4 1.7 4.4l1.5.1c18.6.4 29.7 1 48.4.5l.6-.1c2.3 0 1.7-2.3 1.7-4.6 0-3.2-.4-6.4-1.1-9.5l-1.1-4.6c-.5-2-2.3-3.3-4.4-3l-5.3 1.2c-4.1 1-8.4.8-12.5-.5zM592.8 285.3l-2.1-.6c-2.3-.6-5.8.1-7.6 1.6-7 5.6-19.8 6.9-19.8 15.1 0 2.4-.7 4.4 1.7 4.4l1.5.1c16.1 1.2 32.3 1.2 48.4-.1 2.3 0 2.3-1.8 2.3-4 0-3.2-.4-6.4-1.1-9.5l-1.1-4.6c-.5-2-2.3-3.3-4.4-3l-5.3 1.2c-4.2 1-8.5.7-12.5-.6z"/>
    <path class="st2" d="M553.7 196.9l-7.7-49.2s-.2 119.1-.1 118.5c0-.3 3.7-18.2 5.8-37 1.7-15.3 2-32.3 2-32.3z"/>
    <path class="st21" d="M572.8 130.5c-1.9 1.4-3.8 2.7-5.8 4l9.6 2.1c1.5.3 2.6 1.5 2.8 2.9l4.3 26.9c1.7.2 3.5.3 5.3.3 4.8 0 9.3-.9 8.9-4.1-1.2-9.7-24.8-31.5-24.9-31.6-.1-.2-.1-.3-.2-.5m-16-37.4l-.7.4 2.9 4.4c-1.3-2.9-2.2-4.8-2.2-4.8"/>
    <path class="st22" d="M566.9 134.4c-2 1.3-4 2.5-6.1 3.6.5 1.2 1.2 2.3 1.7 3.5.6 1.2 1.2 2.5 1.6 3.8.6 1.9 1.6 3.8 2.8 5.4 2.4 3.3 3.6 7.5 6.6 10.8 2.4 2.7 5.8 4.4 9.3 4.7.2 0 .4 0 .7.1l-4.3-26.9c-.2-1.5-1.3-2.6-2.8-2.9l-9.5-2.1"/>
    <path class="st23" d="M556.7 93.1c-.6.2-14 9.2-14 9.2l-4.4 3.6 5.8 6c4.5 4.7 5.8 8.2 10.6 16.2 1.3 2.2 4.1 4.8 5.1 7.6.3.8.6 1.5 1 2.3 2.1-1.1 4.1-2.3 6.1-3.6s3.9-2.6 5.8-4c-1.3-3.1-9.8-23.1-13.8-32.5l-2.9-4.4.7-.4"/>
    <path class="st1" d="M598.5 151.3c3 6.4 2.4 15.5-4.3 18.7-10.5 6-16.7 2-21-5.1-1.6-2.7-2.4-5.7-2.2-8.5.2-1.9 1.3-4.8.4-6.4l-8.1-21.1c-1.5-3.9-3.5-7.6-5.9-10.9L545 100.6l19.7-12.7 8.8 15c3.6 6.2 6.5 12.7 8.5 19.6l5.1 17.4c.6 1.9 1.9 3.5 3.8 4.2 3.2 1.3 6 3.7 7.6 7.2"/>
    <path class="st24" d="M601 425c-1.3-13.1.1-53.2 4.4-65.7 2-5.9 5-12.1 10.5-15 8.2-4.4 18.6.2 24.9 6.9 6.3 6.8 10.2 15.5 16.1 22.7 9.2 11.1 23 17.6 37.1 20.1.1 0 .3 0 .4.1 12.8 2.2 20.8-13.6 11.6-22.7-6.3-6.3-11.8-13.3-16.2-21-5.3-9.2-9.5-19.6-18.2-25.7-7.2-5-16.4-6.2-25.1-6.2-10.4 0-21 1.6-30 6.8-11.7 6.7-19.6 18.9-23.8 31.7-4.2 12.9-5.3 54.6-6.3 68.1l14.6-.1z"/>
    <path class="st25" d="M586.1 425c1.3-13.1-.1-39.9-4.4-52.4-2-5.9-5-12.1-10.5-15-8.2-4.4-18.6.2-24.9 6.9-6.3 6.8-10.2 15.5-16.1 22.7-9.2 11.1-23 17.6-37.1 20.1-.1 0-.3 0-.4.1-12.8 2.2-20.8-13.6-11.6-22.7 6.3-6.3 11.8-13.3 16.2-21 5.3-9.2 9.5-19.6 18.2-25.7 7.2-5 16.4-6.2 25.1-6.2 10.4 0 21 1.6 30 6.8 11.7 6.7 19.6 18.9 23.8 31.7 4.2 12.9 5.3 41.3 6.3 54.8l-14.6-.1z"/>
    <path class="st24" d="M104.4 425c-1.3-13.1.1-53.2 4.4-65.7 2-5.9 5-12.1 10.5-15 8.2-4.4 18.6.2 24.9 6.9 6.3 6.8 10.2 15.5 16.1 22.7 9.2 11.1 14.4 19.7 28.5 22.2.1 0 8.4 1.5 8.5 1.5 12.8 2.2 33.6-1.8 15.6-16.9-6.8-5.7-15.6-16.4-19.7-30.3-3-10.2-9.5-19.6-18.2-25.7-7.2-5-16.4-6.2-25.1-6.2-10.4 0-21 1.6-30 6.8-11.7 6.7-19.6 18.9-23.8 31.7-4.2 12.9-5.3 54.6-6.3 68.1h14.6v-.1z"/>
    <path class="st25" d="M92.5 425c1.1-11.1-.1-33.8-3.7-44.4-1.7-5-4.2-10.2-8.9-12.8-6.9-3.7-15.8.1-21.1 5.9-5.4 5.8-8.6 13.2-13.7 19.2-7.8 9.4-19.5 15-31.5 17-.1 0-.2 0-.4.1-10.9 1.8-17.7-11.5-9.8-19.3 5.3-5.3 10-11.3 13.7-17.8 4.5-7.8 8.1-16.6 15.4-21.8 6.1-4.3 13.9-5.3 21.3-5.3 8.8 0 17.8 1.4 25.4 5.8 10 5.7 16.6 16 20.2 26.9s4.5 35 5.3 46.4l-12.2.1z"/>
    <g class="st26">
        <path class="st7" d="M484.4 255.9c-33 0-65.2-.2-96.3-.4-41.6-.3-84.5-.5-128.6-.3v-1.5c44.1-.2 87.1.1 128.6.3 31.1.2 63.3.4 96.3.4v1.5z"/>
    </g>
    <g class="st26">
        <path transform="matrix(.00308 -1 1 .00308 45.123 674.829)" class="st7" d="M360.3 174.3h1.5v281h-1.5z"/>
    </g>
    <g class="st26">
        <path class="st7" d="M286 239.3h-.6c-6.2-.1-11.9-1.9-15.3-4.8-2-1.7-3.1-3.8-3.2-6-.1-1.9.6-3.7 2-5.3 2-2.2 6.8-4.9 10.7-5.4 4.6-1.8 12.7-.2 16 .6 4.7 1.1 8.4 3.8 9.6 6.9 1.3 3.5-.4 7.5-4.5 10.2-3.9 2.4-9.3 3.8-14.7 3.8zm-1.2-20.8c-1.8 0-3.5.2-4.9.8l-.2.1c-3.4.4-8 2.9-9.8 4.9-1.1 1.2-1.7 2.7-1.6 4.2.1 1.7 1.1 3.5 2.7 4.9 3.1 2.7 8.6 4.4 14.4 4.5 5.4.1 10.7-1.2 14.2-3.5s5-5.6 4-8.4c-1-2.6-4.4-5-8.5-6-1.8-.5-6.3-1.5-10.3-1.5z"/>
    </g>
    <g class="st26">
        <path class="st7" d="M443.7 239.8c-1.4 0-2.7-.1-4-.3-4.8-.8-8.9-2.9-11.4-6-2.8-3.4-3.4-7.9-1.4-11.4 1.9-3.5 6.4-5.8 10.7-5.4.6 0 1.2 0 2-.1 1-.1 2-.1 3 0 5.7.6 11.7 1.5 16.1 5 2.5 2 4 4.7 4 7.4 0 4.4-3.2 7.6-9.8 9.5-3.1.8-6.2 1.3-9.2 1.3zm-6.9-21.7c-3.5 0-7 1.9-8.5 4.7-1.7 3-1.2 6.8 1.2 9.8 2.3 2.8 6.1 4.7 10.5 5.4 3.9.6 8.2.3 12.6-1 5.8-1.7 8.7-4.4 8.7-8 0-2.2-1.3-4.5-3.5-6.2-4.2-3.3-9.9-4.1-15.4-4.7-.9-.1-1.8-.1-2.6 0-.9.1-1.6.1-2.3.1-.2-.1-.5-.1-.7-.1z"/>
    </g>
    <g class="st26">
        <path class="st7" d="M248.9 296.4l-.7-1.3c8.1-4 17.6-9.5 26.7-14.8 9.2-5.4 18.7-10.9 26.8-14.9l.7 1.3c-8.1 4-17.6 9.5-26.7 14.8-9.1 5.3-18.6 10.9-26.8 14.9z"/>
    </g>
    <g class="st26">
        <path class="st7" d="M296 295.1c-14.4-8.2-25.4-15.4-39.2-28.1l1-1.1c13.6 12.6 24.6 19.8 38.9 27.9l-.7 1.3z"/>
    </g>
    <g class="st26">
        <path class="st7" d="M239.9 363.7l-.7-1.3c9.5-4.7 19.9-10.3 30-15.7 10.1-5.4 20.5-11 30-15.7l.7 1.3c-9.5 4.7-19.9 10.3-30 15.7-10 5.4-20.4 11-30 15.7z"/>
    </g>
    <g class="st26">
        <path class="st7" d="M295.5 362.2c-17.9-10.2-34.8-22.5-50.2-36.8l1-1.1c15.3 14.1 32.1 26.4 49.9 36.6l-.7 1.3z"/>
    </g>
    <g class="st26">
        <path class="st7" d="M361.1 367.7c-6.1 0-14.3-1.4-19.7-7.8-4.9-5.9-6-15.2-2.6-22.2 3.2-6.6 11.1-12.6 18.8-11.5 9.1-.5 16.1.2 22.6 5.7 6.9 5.9 9.2 16.8 5.1 24.5-4.5 8.4-14.6 10.6-20.3 11.1-1.1.1-2.4.2-3.9.2zm-5.4-40.2c-6.4 0-12.8 5.2-15.5 10.8-3.2 6.5-2.2 15.2 2.4 20.6 6.2 7.4 16.7 7.6 22.4 7.1 5.3-.5 14.9-2.5 19.1-10.3 3.8-7 1.6-17.2-4.8-22.6-6.1-5.2-12.8-5.9-21.6-5.4h-.2c-.6-.1-1.2-.2-1.8-.2z"/>
    </g>
    <g class="st26">
        <path transform="rotate(-3.705 410.46 294.019) scale(.99999)" class="st7" d="M409.7 212.1h1.5V376h-1.5z"/>
    </g>
    <g class="st26">
        <path class="st7" d="M308.4 375.8l-1.5-.1c4.1-57.2 8.8-109.6 13.7-165.2l1.5.1c-4.9 55.6-9.6 108.1-13.7 165.2z"/>
    </g>
</svg>
